<?xml version="1.0" standalone="no"?>
<!DOCTYPE svg PUBLIC "-//W3C//DTD SVG 20010904//EN"
 "http://www.w3.org/TR/2001/REC-SVG-20010904/DTD/svg10.dtd">
<svg version="1.0" xmlns="http://www.w3.org/2000/svg"
 width="200.000000pt" height="200.000000pt" viewBox="0 0 200.000000 200.000000"
 preserveAspectRatio="xMidYMid meet">

<g transform="translate(0.000000,200.000000) scale(0.100000,-0.100000)"
fill="#000000" stroke="none">
<path d="M535 1921 c-16 -10 -114 -104 -217 -207 -197 -200 -225 -239 -248
-350 -7 -33 -10 -227 -8 -550 l3 -499 28 -57 c57 -117 163 -188 292 -196 230
-15 585 65 840 188 277 134 584 389 665 553 133 270 -26 579 -325 630 -178 30
-372 -68 -453 -230 -35 -69 -56 -162 -51 -226 l4 -46 -76 6 c-89 7 -159 -7
-240 -48 l-56 -28 -58 217 c-32 119 -60 225 -62 234 -7 25 44 47 82 37 54 -16
86 0 173 85 46 44 90 93 98 108 17 32 18 81 3 111 -16 31 -239 256 -271 273
-37 19 -87 18 -123 -5z m202 -173 c104 -103 136 -148 119 -165 -4 -4 -50 37
-104 90 -54 53 -103 97 -109 97 -15 0 -43 -28 -43 -42 0 -6 45 -57 100 -113
89 -90 99 -103 85 -115 -14 -12 -29 -1 -114 84 -78 78 -103 97 -122 94 -16 -2
-25 -11 -27 -27 -3 -19 16 -44 92 -120 53 -54 94 -100 90 -104 -18 -17 -43 -1
-128 83 -51 50 -97 90 -103 90 -14 0 -43 -28 -43 -42 0 -5 30 -41 67 -79 l66
-69 -45 0 c-30 0 -54 7 -71 20 -14 11 -31 20 -39 20 -19 0 -38 -20 -38 -41 0
-21 54 -65 90 -74 24 -6 29 -18 68 -163 23 -86 55 -206 71 -265 l29 -108 -23
-27 c-77 -92 -121 -276 -72 -306 30 -19 51 5 59 68 29 229 248 373 466 307 94
-28 107 -23 96 43 -4 28 -8 85 -8 126 0 61 5 86 27 135 77 167 255 250 427
199 101 -30 180 -99 227 -199 24 -51 28 -73 28 -145 0 -108 -28 -173 -121
-276 -180 -201 -464 -388 -735 -482 -254 -89 -609 -128 -709 -77 -48 24 -98
72 -123 120 -22 40 -22 46 -22 560 l0 520 32 65 c26 54 64 97 216 248 133 132
190 182 207 182 16 0 57 -34 137 -112z"/>
</g>
</svg>
