<?xml version="1.0" standalone="no"?>
<!DOCTYPE svg PUBLIC "-//W3C//DTD SVG 20010904//EN"
 "http://www.w3.org/TR/2001/REC-SVG-20010904/DTD/svg10.dtd">
<svg version="1.0" xmlns="http://www.w3.org/2000/svg"
 width="256.000000pt" height="256.000000pt" viewBox="0 0 256.000000 256.000000"
 preserveAspectRatio="xMidYMid meet">

<g transform="translate(0.000000,256.000000) scale(0.100000,-0.100000)"
fill="#000000" stroke="none">
<path d="M933 2321 c-83 -52 -113 -194 -148 -701 -15 -220 -29 -366 -41 -424
-8 -35 -17 -23 -39 50 -27 92 -14 89 -357 89 l-300 0 -24 -28 c-31 -36 -31
-71 1 -102 l24 -25 254 0 254 0 17 -43 c23 -60 79 -123 122 -137 20 -7 54 -10
76 -7 106 14 135 110 168 565 28 387 43 532 55 520 9 -9 36 -222 70 -550 51
-490 73 -630 116 -727 25 -57 45 -80 88 -98 66 -28 125 9 168 107 14 30 56
175 93 322 38 147 73 275 78 284 12 21 12 19 37 -101 37 -178 82 -264 148
-280 68 -17 107 6 207 123 19 22 23 22 260 22 227 0 241 1 260 20 26 26 27 83
1 109 -30 30 -67 33 -317 29 l-229 -3 -47 -28 c-26 -15 -55 -41 -65 -57 -30
-52 -30 -52 -78 162 -30 135 -44 173 -80 216 -47 56 -128 52 -179 -9 -39 -46
-79 -166 -147 -436 -34 -139 -66 -253 -70 -253 -17 0 -48 233 -94 695 -44 442
-77 605 -138 671 -41 45 -97 55 -144 25z"/>
<path d="M480 2204 c-186 -40 -364 -192 -429 -368 -33 -89 -44 -189 -31 -292
12 -97 20 -117 55 -140 32 -21 80 -10 101 22 14 21 15 36 4 121 -20 166 17
283 121 383 92 88 198 130 330 130 66 0 78 3 97 23 23 25 28 66 12 97 -22 40
-135 51 -260 24z"/>
<path d="M1740 2205 c-138 -38 -293 -138 -418 -269 -64 -68 -72 -80 -72 -115
0 -31 6 -44 26 -60 47 -37 70 -28 156 59 101 103 164 149 263 197 77 37 84 38
185 38 98 0 110 -2 170 -32 67 -33 163 -120 200 -181 53 -87 70 -191 56 -333
-8 -71 -6 -79 13 -98 25 -25 77 -28 108 -6 45 32 58 224 23 359 -38 148 -119
263 -253 357 -103 72 -161 91 -292 95 -76 3 -127 -1 -165 -11z"/>
<path d="M225 1115 c-35 -34 -33 -77 8 -129 193 -246 548 -539 866 -714 82
-46 101 -52 151 -52 54 0 58 2 70 29 23 57 5 79 -121 149 -316 176 -577 386
-830 670 -73 81 -101 91 -144 47z"/>
<path d="M2143 1123 c-7 -2 -50 -53 -95 -111 -150 -195 -354 -378 -563 -507
-110 -67 -115 -72 -115 -116 0 -29 6 -42 26 -58 34 -26 54 -26 107 0 141 72
355 238 502 390 97 100 219 248 244 297 33 63 -38 133 -106 105z"/>
</g>
</svg>
