<svg xmlns="http://www.w3.org/2000/svg" width="348px" height="241px" viewBox="0 0 3480 2410"
     preserveAspectRatio="xMidYMid meet">
    <g id="layer101" fill="#333333" stroke="none">
        <path d="M859 1765 c-181 -46 -329 -169 -403 -336 -32 -73 -46 -145 -46 -235 0 -66 -3 -78 -25 -99 -19 -20 -34 -25 -74 -25 -72 0 -81 -13 -81 -115 0 -63 4 -88 16 -99 14 -14 86 -16 641 -16 l626 0 37 39 37 39 54 -10 c55 -10 261 -6 291 7 11 4 18 0 23 -15 4 -12 21 -30 38 -41 31 -18 57 -19 654 -19 l623 0 16 25 c12 19 15 42 12 101 -4 89 -17 104 -88 104 -77 0 -86 13 -93 132 -6 131 -35 219 -102 318 -234 345 -744 344 -975 -2 -53 -80 -80 -156 -94 -268 l-12 -95 -54 -12 c-70 -14 -170 -14 -240 0 l-55 12 -7 85 c-18 233 -166 423 -397 508 -83 30 -238 39 -322 17z"/>
    </g>
    <g id="layer102" fill="#eeaa01" stroke="none">
        <path d="M848 1637 c-139 -48 -254 -161 -297 -295 -30 -91 -41 -320 -17 -356 l16 -26 445 0 445 0 16 25 c14 22 16 46 11 163 -5 155 -22 215 -83 307 -114 172 -339 249 -536 182z"/>
        <path d="M2379 1636 c-154 -54 -262 -173 -304 -333 -9 -36 -15 -104 -15 -184 0 -109 2 -128 18 -142 17 -15 63 -17 455 -17 383 0 437 2 451 16 23 22 23 268 0 345 -74 255 -357 403 -605 315z"/>
    </g>
    <g id="layer103" fill="#ff6699" stroke="none">
        <path d="M848 1637 c-208 -71 -327 -250 -319 -479 1 -22 6 -28 24 -28 15 0 50 -28 107 -85 l85 -85 125 0 125 0 -85 85 -85 85 45 0 c44 0 49 -3 130 -85 l85 -85 80 0 80 0 -85 85 -85 85 199 0 199 0 -6 78 c-14 178 -101 316 -248 396 -111 61 -252 73 -371 33z"/>
        <path d="M2379 1636 c-192 -67 -319 -247 -319 -448 0 -57 1 -58 28 -58 21 0 46 -19 112 -85 l85 -85 125 0 125 0 -85 85 -85 85 45 0 c44 0 49 -3 130 -85 l85 -85 80 0 80 0 -85 85 -85 85 193 0 192 0 0 68 c0 156 -83 304 -221 393 -112 72 -273 90 -400 45z"/>
    </g>
    <g id="layer104" fill="#ce45eb" stroke="none">
        <path d="M848 1637 c-84 -29 -169 -87 -214 -146 l-35 -45 68 -68 67 -68 -45 0 c-38 0 -50 5 -79 35 -19 19 -37 35 -42 35 -11 0 -37 -99 -38 -150 -3 -93 -2 -100 23 -100 15 0 50 -28 107 -85 l85 -85 125 0 125 0 -85 85 -85 85 45 0 c44 0 49 -3 130 -85 l85 -85 80 0 80 0 -85 85 -85 85 199 0 199 0 -6 81 c-4 44 -9 84 -12 90 -4 5 -119 9 -283 9 l-277 0 -88 88 -87 87 320 -3 c196 -1 320 1 320 7 0 15 -84 85 -140 115 -112 61 -253 73 -372 33z"/>
        <path d="M2379 1636 c-36 -13 -86 -37 -110 -53 -44 -31 -129 -116 -129 -130 0 -4 30 -38 67 -75 l67 -68 -44 0 c-38 0 -50 5 -86 41 l-42 41 -17 -49 c-9 -26 -19 -85 -22 -130 l-6 -83 29 0 c24 0 46 -17 114 -85 l85 -85 125 0 125 0 -85 85 -85 85 45 0 c44 0 49 -3 130 -85 l85 -85 80 0 80 0 -85 85 -85 85 193 0 192 0 0 68 c0 37 -3 77 -6 90 l-6 22 -277 0 -276 0 -85 85 -85 85 320 0 319 0 -39 41 c-126 128 -320 174 -486 115z"/>
    </g>
    <g id="layer105" fill="#eedf3a" stroke="none">
        <path d="M631 1488 l-31 -42 67 -68 67 -68 -45 0 c-38 0 -50 5 -79 35 -19 19 -37 35 -42 35 -11 0 -37 -99 -38 -150 -3 -93 -2 -100 23 -100 15 0 50 -28 107 -85 l85 -85 125 0 125 0 -85 85 -85 85 45 0 c44 0 49 -3 130 -85 l85 -85 80 0 80 0 -85 85 -85 85 199 0 199 0 -6 81 c-4 44 -9 84 -12 90 -4 5 -119 9 -283 9 l-277 0 -110 110 c-60 61 -113 110 -116 110 -4 0 -21 -19 -38 -42z"/>
        <path d="M2171 1495 c-17 -20 -31 -39 -31 -43 0 -3 30 -37 67 -74 l67 -68 -44 0 c-38 0 -50 5 -86 41 l-42 41 -17 -49 c-9 -26 -19 -85 -22 -130 l-6 -83 29 0 c24 0 46 -17 114 -85 l85 -85 125 0 125 0 -85 85 -85 85 45 0 c44 0 49 -3 130 -85 l85 -85 80 0 80 0 -85 85 -85 85 193 0 192 0 0 68 c0 37 -3 77 -6 90 l-6 22 -277 0 -276 0 -110 110 c-60 61 -113 110 -116 110 -4 0 -21 -16 -38 -35z"/>
    </g>
    <g id="layer106" fill="#fffefd" stroke="none">
        <path d="M631 1488 l-31 -42 242 -243 243 -243 80 0 80 0 -285 285 c-157 157 -288 285 -292 285 -3 0 -20 -19 -37 -42z"/>
        <path d="M2171 1495 c-17 -20 -31 -39 -31 -43 0 -4 109 -116 243 -250 l242 -242 80 0 80 0 -285 285 c-157 157 -288 285 -291 285 -4 0 -21 -16 -38 -35z"/>
        <path d="M2086 1344 c-9 -27 -19 -74 -22 -104 l-6 -55 114 -113 114 -113 122 3 122 3 -214 214 -213 213 -17 -48z"/>
        <path d="M549 1343 c-7 -21 -15 -65 -18 -97 l-6 -59 109 -114 108 -113 127 0 126 0 -210 210 c-115 116 -213 210 -217 210 -3 0 -12 -17 -19 -37z"/>
        <path d="M317 982 l-27 -28 28 -27 28 -27 27 28 27 28 -28 27 -28 27 -27 -28z"/>
        <path d="M3144 979 c-13 -15 -16 -24 -8 -36 26 -42 62 -42 88 0 12 19 -17 57 -44 57 -9 0 -25 -9 -36 -21z"/>
    </g>
</svg>