<?xml version="1.0" standalone="no"?>
<!DOCTYPE svg PUBLIC "-//W3C//DTD SVG 20010904//EN"
 "http://www.w3.org/TR/2001/REC-SVG-20010904/DTD/svg10.dtd">
<svg version="1.0" xmlns="http://www.w3.org/2000/svg"
 width="612.000000pt" height="612.000000pt" viewBox="0 0 612.000000 612.000000"
 preserveAspectRatio="xMidYMid meet">

<g transform="translate(0.000000,612.000000) scale(0.100000,-0.100000)"
fill="#000000" stroke="none">
<path d="M2965 4931 c-136 -36 -224 -140 -233 -275 -11 -183 121 -321 304
-318 112 1 207 62 262 167 22 42 27 63 27 130 0 93 -22 148 -83 210 -67 68
-195 108 -277 86z"/>
<path d="M2381 4186 c-211 -84 -396 -161 -411 -169 -40 -24 -64 -80 -57 -136
30 -243 82 -571 93 -594 33 -62 125 -85 193 -49 39 21 71 73 71 116 0 30 -46
381 -55 423 -4 19 11 27 162 87 91 37 167 65 169 64 1 -2 -38 -150 -86 -330
l-89 -326 -136 -271 c-74 -149 -138 -271 -143 -271 -4 0 -148 -25 -320 -54
-278 -48 -317 -58 -348 -81 -45 -34 -65 -66 -71 -112 -11 -81 55 -161 140
-170 51 -5 735 110 789 134 21 9 45 28 55 42 9 14 70 134 136 266 65 132 120
241 122 243 3 3 79 -45 357 -223 l88 -56 -14 -32 c-7 -18 -64 -149 -126 -292
-119 -274 -134 -327 -110 -399 22 -67 103 -107 177 -87 77 21 98 57 264 441
151 349 154 356 154 427 0 57 -4 77 -21 100 -18 25 -237 171 -481 323 -46 28
-85 55 -88 61 -6 8 100 419 114 447 4 7 39 -57 85 -157 43 -93 88 -179 100
-190 27 -25 69 -41 108 -41 50 0 590 142 621 162 105 73 50 258 -77 258 -13 0
-121 -25 -240 -56 -120 -30 -219 -54 -221 -52 -2 2 -31 64 -65 138 -253 550
-240 526 -298 554 -20 10 -57 16 -95 15 -56 0 -99 -15 -446 -153z"/>
<path d="M4595 3622 l-125 -168 -337 -53 c-186 -28 -352 -57 -370 -62 -33 -10
-63 -57 -63 -98 0 -39 28 -89 59 -105 28 -15 45 -14 252 19 122 19 224 33 226
31 2 -2 -17 -38 -42 -81 -181 -306 -249 -529 -249 -825 0 -109 4 -173 15 -217
9 -35 16 -63 15 -63 -1 0 -114 -16 -252 -35 -137 -19 -285 -39 -329 -45 -44
-6 -125 -18 -180 -26 -55 -8 -347 -48 -650 -89 -1054 -145 -1130 -155 -1172
-166 -23 -6 -61 -27 -83 -46 -56 -48 -81 -101 -82 -173 -2 -107 64 -195 167
-225 48 -14 67 -13 343 25 638 88 891 122 1482 204 338 47 752 103 920 126
168 23 325 48 349 57 93 34 151 116 151 216 0 108 -63 192 -167 223 -48 14
-64 14 -187 -3 l-135 -19 -10 23 c-51 111 -30 432 41 653 29 90 112 251 206
400 l78 125 64 11 c75 14 63 1 236 239 83 115 124 179 124 196 0 44 -95 119
-151 119 -13 0 -57 -52 -144 -168z"/>
<path d="M3805 1450 c-423 -60 -771 -109 -772 -109 -2 -1 -3 -21 -3 -46 l0
-45 805 0 805 0 0 155 0 155 -32 -1 c-18 -1 -379 -50 -803 -109z"/>
</g>
</svg>
