<?xml version="1.0" standalone="no"?>
<!DOCTYPE svg PUBLIC "-//W3C//DTD SVG 20010904//EN"
 "http://www.w3.org/TR/2001/REC-SVG-20010904/DTD/svg10.dtd">
<svg version="1.0" xmlns="http://www.w3.org/2000/svg"
 width="512.000000pt" height="512.000000pt" viewBox="0 0 512.000000 512.000000"
 preserveAspectRatio="xMidYMid meet">

<g transform="translate(0.000000,512.000000) scale(0.100000,-0.100000)"
fill="#000000" stroke="none">
<path d="M2153 4915 c-124 -34 -222 -115 -280 -233 -37 -74 -38 -79 -38 -186
0 -104 2 -115 32 -179 184 -389 746 -317 824 105 56 304 -238 573 -538 493z"/>
<path d="M2057 3900 c-137 -35 -284 -174 -374 -355 -119 -238 -151 -589 -84
-920 61 -302 283 -605 637 -871 120 -90 318 -213 448 -279 73 -37 86 -40 160
-40 69 0 86 3 114 23 47 34 578 781 592 834 22 80 -41 175 -131 199 -86 23
-107 8 -341 -243 -114 -123 -223 -239 -243 -258 l-36 -35 -66 34 c-219 114
-378 439 -412 847 -17 190 11 389 57 418 6 3 220 -122 477 -279 258 -156 483
-287 501 -291 48 -9 91 4 131 39 65 58 82 145 40 208 -13 19 -216 184 -467
377 -686 529 -711 547 -776 571 -67 26 -171 35 -227 21z"/>
<path d="M1800 1887 c0 -56 222 -1552 233 -1574 19 -36 63 -80 102 -101 46
-25 169 -22 221 5 72 39 123 115 124 188 1 44 -144 1041 -153 1053 -5 6 -45
37 -88 67 -115 80 -263 202 -356 294 -46 44 -83 75 -83 68z"/>
</g>
</svg>
