<?xml version="1.0" standalone="no"?>
<!DOCTYPE svg PUBLIC "-//W3C//DTD SVG 20010904//EN"
 "http://www.w3.org/TR/2001/REC-SVG-20010904/DTD/svg10.dtd">
<svg version="1.0" xmlns="http://www.w3.org/2000/svg"
 width="1024.000000pt" height="768.000000pt" viewBox="0 0 1024.000000 768.000000"
 preserveAspectRatio="xMidYMid meet">

<g transform="translate(0.000000,768.000000) scale(0.100000,-0.100000)"
fill="#737373" stroke="none">
<path d="M8485 5236 c-188 -43 -335 -149 -496 -356 -37 -47 -133 -179 -214
-295 -204 -289 -255 -355 -363 -467 -177 -183 -356 -279 -632 -338 -136 -30
-315 -32 -410 -6 -135 37 -299 131 -465 266 -263 215 -481 299 -697 270 -106
-15 -205 -47 -391 -126 -184 -79 -318 -124 -457 -156 -92 -20 -131 -23 -320
-23 -180 0 -225 3 -275 18 -183 57 -271 147 -405 417 -103 205 -182 300 -300
360 -81 41 -152 53 -271 48 -226 -11 -507 -143 -1139 -536 -491 -306 -671
-434 -806 -574 -156 -161 -217 -292 -218 -463 0 -151 40 -268 147 -423 169
-245 439 -369 897 -412 93 -8 1020 -10 3595 -8 3277 3 3476 4 3573 21 152 26
265 61 372 114 77 38 111 63 176 128 69 69 88 96 137 195 75 153 88 208 94
420 13 424 -97 1037 -245 1369 -124 277 -308 469 -522 542 -82 28 -273 36
-365 15z m233 -266 c87 -16 142 -49 227 -134 93 -94 146 -182 206 -341 150
-396 245 -1147 174 -1375 -74 -239 -220 -345 -547 -397 -107 -17 -300 -18
-3593 -18 -3297 0 -3486 1 -3595 18 -274 43 -412 99 -530 217 -103 102 -153
201 -158 312 -4 69 -1 84 25 140 78 167 233 291 833 665 454 283 710 424 871
479 264 89 346 53 478 -211 178 -356 331 -499 605 -570 101 -25 308 -37 460
-26 248 19 454 75 768 210 90 38 190 77 223 86 160 41 311 -2 495 -142 248
-189 300 -225 388 -271 199 -104 288 -126 502 -126 186 -1 300 18 489 80 371
122 579 311 991 904 202 290 309 412 405 460 89 44 189 58 283 40z"/>
</g>
</svg>
