<?xml version="1.0" standalone="no"?>
<!DOCTYPE svg PUBLIC "-//W3C//DTD SVG 20010904//EN"
 "http://www.w3.org/TR/2001/REC-SVG-20010904/DTD/svg10.dtd">
<svg version="1.0" xmlns="http://www.w3.org/2000/svg"
 width="225.000000pt" height="225.000000pt" viewBox="0 0 225.000000 225.000000"
 preserveAspectRatio="xMidYMid meet">

<g transform="translate(0.000000,225.000000) scale(0.100000,-0.100000)"
fill="#000000" stroke="none">
<path d="M775 2011 c-37 -16 -53 -45 -110 -191 -59 -152 -85 -242 -85 -300 0
-33 -4 -37 -63 -69 -154 -83 -212 -110 -291 -135 -88 -28 -110 -43 -104 -72
11 -55 119 -31 325 73 73 37 134 65 136 62 2 -2 10 -33 16 -68 7 -35 38 -134
68 -220 53 -150 56 -161 61 -278 2 -67 1 -143 -2 -168 l-7 -45 -75 0 -74 0 0
60 c0 119 -28 140 -190 140 -125 0 -160 -11 -179 -58 -9 -20 -11 -97 -9 -260
l3 -232 26 -26 c25 -25 29 -26 154 -25 173 2 195 17 195 137 l0 54 87 0 86 0
37 -40 37 -40 176 0 c161 0 177 2 186 18 6 10 7 28 4 40 -5 21 -3 22 81 22
l86 0 0 -69 c0 -58 3 -72 25 -95 24 -26 26 -26 160 -26 201 0 198 -5 193 329
l-3 213 -33 29 c-32 29 -33 29 -158 29 -125 0 -126 0 -155 -29 -27 -27 -29
-35 -29 -100 l0 -71 -52 0 c-51 0 -55 2 -115 63 -68 68 -93 120 -93 196 0 42
31 278 46 344 l6 28 46 -43 c26 -24 62 -50 81 -58 32 -13 35 -12 52 9 23 28
12 53 -29 75 -58 30 -132 140 -132 196 0 77 -67 200 -109 200 -39 0 -56 -55
-25 -80 26 -23 45 -83 45 -145 0 -33 -14 -141 -31 -239 -38 -222 -42 -331 -15
-410 17 -51 25 -60 73 -87 29 -16 51 -35 49 -42 -2 -7 -25 -12 -58 -12 -51 0
-54 -1 -57 -27 -2 -15 8 -59 23 -99 14 -39 24 -74 21 -76 -2 -3 -53 -1 -113 3
-104 7 -109 8 -140 40 -38 37 -39 48 -17 176 12 67 15 124 11 203 -7 118 -14
151 -75 320 -59 165 -75 247 -70 368 4 95 9 113 64 261 64 172 67 176 143 176
59 0 142 -29 186 -65 66 -53 99 -65 226 -80 138 -16 170 -29 317 -125 122 -80
159 -130 192 -257 11 -43 33 -59 64 -47 26 10 28 44 8 112 -26 80 -72 152
-134 206 l-50 44 39 6 c49 9 187 -8 281 -34 87 -24 108 -25 120 -4 25 45 -18
71 -168 105 -95 21 -245 25 -333 8 -55 -10 -61 -9 -122 22 -45 22 -89 34 -147
41 -151 18 -185 27 -228 63 -74 62 -124 79 -235 82 -55 2 -109 -1 -120 -6z"/>
<path d="M1274 1579 c-17 -28 23 -131 71 -181 31 -33 82 -61 95 -53 19 12 9
30 -31 55 -45 28 -83 86 -93 142 -6 36 -30 57 -42 37z"/>
</g>
</svg>
