<?xml version="1.0" standalone="no"?>
<!DOCTYPE svg PUBLIC "-//W3C//DTD SVG 20010904//EN"
 "http://www.w3.org/TR/2001/REC-SVG-20010904/DTD/svg10.dtd">
<svg version="1.0" xmlns="http://www.w3.org/2000/svg"
 width="296.000000pt" height="171.000000pt" viewBox="0 0 296.000000 171.000000"
 preserveAspectRatio="xMidYMid meet">

<g transform="translate(0.000000,171.000000) scale(0.100000,-0.100000)"
fill="#000000" stroke="none">
<path d="M1405 1635 c-69 -38 -95 -80 -95 -158 0 -82 53 -148 133 -167 107
-24 207 57 207 167 0 65 -18 103 -66 139 -45 35 -133 44 -179 19z"/>
<path d="M740 1465 l0 -85 -28 0 c-61 0 -94 -57 -54 -93 10 -10 33 -17 50 -17
l32 0 0 -84 c0 -93 2 -96 69 -96 53 0 61 13 61 102 l0 78 55 0 c30 0 55 -4 55
-9 0 -43 34 -299 41 -314 11 -19 48 -37 77 -37 9 0 49 35 89 78 l73 77 -2
-150 -3 -150 -149 -62 c-148 -62 -181 -81 -190 -112 -3 -9 -19 -107 -36 -218
-29 -190 -30 -204 -15 -234 33 -63 131 -72 168 -15 9 12 27 99 42 192 14 92
27 169 28 170 1 0 61 24 132 52 l130 52 115 0 115 0 130 -52 c72 -28 131 -52
132 -53 2 -1 15 -78 29 -170 15 -93 33 -179 41 -192 37 -56 135 -47 168 17 15
30 15 43 -15 238 -18 114 -36 214 -40 222 -16 30 -48 48 -192 106 l-148 59 0
150 0 150 73 -78 c40 -42 80 -77 89 -77 29 0 66 18 77 37 7 15 41 271 41 314
0 5 25 9 55 9 l55 0 0 -78 c0 -89 8 -102 61 -102 67 0 69 3 69 96 l0 84 33 0
c60 0 90 63 45 94 -12 9 -35 16 -50 16 l-28 0 0 85 0 86 -62 -3 -63 -3 -3 -82
-3 -83 -49 0 c-43 0 -50 3 -50 19 0 25 -46 61 -77 61 -27 0 -73 -41 -73 -65 0
-12 -13 -15 -67 -15 -68 -1 -68 -1 -95 -40 -95 -137 -301 -137 -396 0 -27 39
-27 39 -94 40 -60 0 -68 2 -68 19 0 24 -45 61 -75 61 -30 0 -75 -37 -75 -61 0
-16 -7 -19 -50 -19 l-49 0 -3 83 -3 82 -62 3 -63 3 0 -86z m454 -239 c-22 -24
-42 -45 -46 -45 -5 -1 -8 19 -8 44 l0 45 46 0 47 0 -39 -44z m628 -1 c-2 -25
-7 -45 -11 -44 -3 0 -23 21 -45 45 l-39 44 49 0 49 0 -3 -45z"/>
</g>
</svg>
